<svg width="320" height="512" viewBox="0 0 320 512" fill="none" xmlns="http://www.w3.org/2000/svg">
<g filter="url(#filter0_f_3055_3)">
<path d="M186.157 356.846C195.151 351.007 204.784 344.358 216.492 344.788C226.068 345.139 233.317 353.194 240.332 360.206C250.408 370.278 259.09 381.41 263.884 395.004C265.014 398.206 265.476 403.486 265.771 406.836C266.347 413.379 267.859 418.996 270.385 425.246C272.849 431.342 264.662 435.411 263.949 441.197" stroke="url(#paint0_linear_3055_3)" stroke-opacity="0.2" stroke-width="205" stroke-linecap="round"/>
</g>
<g filter="url(#filter1_f_3055_3)">
<path d="M-18.6542 463.871C-11.3847 478.486 -4.43797 494.92 22.0145 498.085C43.6509 500.673 76.5054 487.252 106.643 475.809C149.935 459.371 192.426 440.364 231.645 415.161C240.885 409.223 253.062 398.955 260.794 392.439C275.892 379.716 291.074 369.141 309.808 357.664C328.082 346.469 318.826 335.628 329.513 323.957" stroke="url(#paint1_linear_3055_3)" stroke-opacity="0.2" stroke-width="205" stroke-linecap="round"/>
</g>
<g filter="url(#filter2_f_3055_3)">
<path d="M79.9579 476.076C84.8159 468.999 90.4308 461.491 88.3965 450.827C86.7325 442.104 77.3677 434.092 69.1193 426.481C57.2709 415.548 44.5094 405.684 29.7116 398.89C26.2254 397.289 20.6681 395.917 17.1413 395.044C10.254 393.34 4.20306 390.957 -2.64362 387.542C-9.32249 384.211 -12.4469 390.879 -18.3722 390.477" stroke="url(#paint2_linear_3055_3)" stroke-opacity="0.2" stroke-width="205" stroke-linecap="round"/>
</g>
<defs>
<filter id="filter0_f_3055_3" x="-137.469" y="21.3875" width="731.929" height="743.206" filterUnits="userSpaceOnUse" color-interpolation-filters="sRGB">
<feFlood flood-opacity="0" result="BackgroundImageFix"/>
<feBlend mode="normal" in="SourceGraphic" in2="BackgroundImageFix" result="shape"/>
<feGaussianBlur stdDeviation="110.5" result="effect1_foregroundBlur_3055_3"/>
</filter>
<filter id="filter1_f_3055_3" x="-342.263" y="0.542236" width="995.363" height="821.264" filterUnits="userSpaceOnUse" color-interpolation-filters="sRGB">
<feFlood flood-opacity="0" result="BackgroundImageFix"/>
<feBlend mode="normal" in="SourceGraphic" in2="BackgroundImageFix" result="shape"/>
<feGaussianBlur stdDeviation="110.5" result="effect1_foregroundBlur_3055_3"/>
</filter>
<filter id="filter2_f_3055_3" x="-341.995" y="63.2231" width="754.445" height="736.244" filterUnits="userSpaceOnUse" color-interpolation-filters="sRGB">
<feFlood flood-opacity="0" result="BackgroundImageFix"/>
<feBlend mode="normal" in="SourceGraphic" in2="BackgroundImageFix" result="shape"/>
<feGaussianBlur stdDeviation="110.5" result="effect1_foregroundBlur_3055_3"/>
</filter>
<linearGradient id="paint0_linear_3055_3" x1="209.744" y1="338.844" x2="265.966" y2="425.673" gradientUnits="userSpaceOnUse">
<stop stop-color="#00C5EB"/>
<stop offset="1" stop-color="#B544FE"/>
</linearGradient>
<linearGradient id="paint1_linear_3055_3" x1="-5.28131" y1="507.51" x2="300.61" y2="354.387" gradientUnits="userSpaceOnUse">
<stop stop-color="#00C5EB"/>
<stop offset="1" stop-color="#B544FE"/>
</linearGradient>
<linearGradient id="paint2_linear_3055_3" x1="95.4968" y1="458.003" x2="-2.26741" y2="391.137" gradientUnits="userSpaceOnUse">
<stop stop-color="#00C5EB"/>
<stop offset="1" stop-color="#B544FE"/>
</linearGradient>
</defs>
</svg>
